<svg xmlns="http://www.w3.org/2000/svg" width="220" height="220" viewBox="0 0 220 220" role="img" aria-label="QR placeholder">
  <rect width="220" height="220" fill="#d9d9d9"/>
  <g fill="#000000">
    <rect x="24" y="24" width="56" height="56"/>
    <rect x="32" y="32" width="40" height="40" fill="#d9d9d9"/>
    <rect x="40" y="40" width="24" height="24"/>

    <rect x="140" y="24" width="56" height="56"/>
    <rect x="148" y="32" width="40" height="40" fill="#d9d9d9"/>
    <rect x="156" y="40" width="24" height="24"/>

    <rect x="24" y="140" width="56" height="56"/>
    <rect x="32" y="148" width="40" height="40" fill="#d9d9d9"/>
    <rect x="40" y="156" width="24" height="24"/>

    <rect x="98" y="24" width="16" height="16"/>
    <rect x="114" y="24" width="16" height="16"/>
    <rect x="98" y="40" width="16" height="16"/>

    <rect x="98" y="74" width="16" height="16"/>
    <rect x="114" y="74" width="16" height="16"/>
    <rect x="130" y="74" width="16" height="16"/>

    <rect x="98" y="98" width="16" height="16"/>
    <rect x="130" y="98" width="16" height="16"/>
    <rect x="162" y="98" width="16" height="16"/>

    <rect x="90" y="122" width="16" height="16"/>
    <rect x="106" y="122" width="16" height="16"/>
    <rect x="122" y="122" width="16" height="16"/>
    <rect x="154" y="122" width="16" height="16"/>

    <rect x="90" y="146" width="16" height="16"/>
    <rect x="122" y="146" width="16" height="16"/>
    <rect x="138" y="146" width="16" height="16"/>

    <rect x="90" y="170" width="16" height="16"/>
    <rect x="106" y="170" width="16" height="16"/>
    <rect x="138" y="170" width="16" height="16"/>
    <rect x="154" y="170" width="16" height="16"/>
    <rect x="170" y="170" width="16" height="16"/>
  </g>
</svg>
